<svg width="20" height="18" viewBox="0 0 20 18" fill="none" xmlns="http://www.w3.org/2000/svg">
<path fill-rule="evenodd" clip-rule="evenodd" d="M8.00131 11.6172C7.82558 11.6172 7.64986 11.5442 7.51623 11.3972C6.84077 10.6602 6.46826 9.68019 6.46826 8.63819C6.46826 6.47819 8.07545 4.72119 10.0506 4.72119C11.0006 4.72119 11.9232 5.14019 12.5812 5.87119C12.8467 6.16719 12.8439 6.64119 12.573 6.93119C12.303 7.22319 11.8692 7.21819 11.6028 6.92419C11.201 6.47719 10.6354 6.22119 10.0506 6.22119C8.83236 6.22119 7.84114 7.30519 7.84114 8.63819C7.84114 9.27919 8.07087 9.88319 8.4864 10.3372C8.75457 10.6302 8.75457 11.1042 8.48731 11.3972C8.35277 11.5442 8.17704 11.6172 8.00131 11.6172Z" fill="#252730" fill-opacity="0.7"/>
<path fill-rule="evenodd" clip-rule="evenodd" d="M10.5705 12.4912C10.2456 12.4912 9.95635 12.2372 9.89594 11.8752C9.82821 11.4682 10.0753 11.0772 10.4488 11.0032C11.3457 10.8252 12.0559 10.0472 12.217 9.06621C12.2848 8.65921 12.6417 8.39121 13.0142 8.46121C13.3876 8.53421 13.6357 8.92421 13.5689 9.33221C13.3062 10.9252 12.1511 12.1892 10.694 12.4792C10.6529 12.4872 10.6108 12.4912 10.5705 12.4912Z" fill="#252730" fill-opacity="0.7"/>
<mask id="mask0_2926_96" style="mask-type:luminance" maskUnits="userSpaceOnUse" x="0" y="0" width="16" height="15">
<path fill-rule="evenodd" clip-rule="evenodd" d="M0.898438 0.624481H15.6214V14.7226H0.898438V0.624481Z" fill="white"/>
</mask>
<g mask="url(#mask0_2926_96)">
<path fill-rule="evenodd" clip-rule="evenodd" d="M5.15849 14.7226C5.01022 14.7226 4.86103 14.6696 4.73473 14.5626C3.18703 13.2346 1.87913 11.2876 0.954726 8.93361C0.879675 8.74361 0.879675 8.52961 0.954726 8.34061C1.8892 5.97661 3.20534 4.01961 4.76127 2.68261C7.93354 -0.0603917 12.1565 -0.0693918 15.3608 2.70261C15.6583 2.95961 15.7086 3.43161 15.4734 3.75661C15.2373 4.07961 14.8071 4.13661 14.5087 3.87861C11.7941 1.53061 8.2969 1.53861 5.61154 3.86061C4.29723 4.99061 3.16873 6.63661 2.33584 8.63861C3.16049 10.6286 4.27893 12.2646 5.58317 13.3826C5.88154 13.6386 5.93279 14.1106 5.69849 14.4356C5.56303 14.6236 5.36168 14.7226 5.15849 14.7226Z" fill="#252730" fill-opacity="0.7"/>
</g>
<mask id="mask1_2926_96" style="mask-type:luminance" maskUnits="userSpaceOnUse" x="7" y="4" width="13" height="13">
<path fill-rule="evenodd" clip-rule="evenodd" d="M7.04639 4.74118H19.2033V16.6894H7.04639V4.74118Z" fill="white"/>
</mask>
<g mask="url(#mask1_2926_96)">
<path fill-rule="evenodd" clip-rule="evenodd" d="M10.0508 16.6894C9.19324 16.6894 8.34022 16.5374 7.51649 16.2384C7.1568 16.1074 6.96185 15.6824 7.08174 15.2894C7.20164 14.8954 7.5888 14.6864 7.95032 14.8144C8.63402 15.0634 9.34059 15.1894 10.0508 15.1894C13.1883 15.1894 16.0558 12.7474 17.7664 8.63639C17.3491 7.63739 16.8631 6.73239 16.3194 5.94239C16.0915 5.61139 16.1519 5.14039 16.4549 4.89139C16.7569 4.64239 17.188 4.71039 17.4159 5.04039C18.0785 6.00139 18.6606 7.11239 19.1466 8.33839C19.2226 8.52839 19.2226 8.74439 19.1466 8.93339C17.2283 13.7904 13.8281 16.6894 10.0508 16.6894Z" fill="#252730" fill-opacity="0.7"/>
</g>
<mask id="mask2_2926_96" style="mask-type:luminance" maskUnits="userSpaceOnUse" x="2" y="0" width="16" height="18">
<path fill-rule="evenodd" clip-rule="evenodd" d="M2.14648 0.000396729H17.9561V17.2734H2.14648V0.000396729Z" fill="white"/>
</mask>
<g mask="url(#mask2_2926_96)">
<path fill-rule="evenodd" clip-rule="evenodd" d="M2.8327 17.2734C2.65697 17.2734 2.48124 17.2004 2.34761 17.0534C2.07944 16.7604 2.07944 16.2864 2.34761 15.9934L16.7848 0.219384C17.053 -0.0736162 17.4868 -0.0736162 17.755 0.219384C18.0232 0.512384 18.0232 0.987384 17.755 1.28038L3.31778 17.0534C3.18415 17.2004 3.00843 17.2734 2.8327 17.2734Z" fill="#252730" fill-opacity="0.7"/>
</g>
</svg>
